<?xml version="1.0" encoding="UTF-8" standalone="no"?>
<!-- Created with Inkscape (http://www.inkscape.org/) -->

<svg
   xmlns:dc="http://purl.org/dc/elements/1.1/"
   xmlns:cc="http://creativecommons.org/ns#"
   xmlns:rdf="http://www.w3.org/1999/02/22-rdf-syntax-ns#"
   xmlns:svg="http://www.w3.org/2000/svg"
   xmlns="http://www.w3.org/2000/svg"
   xmlns:sodipodi="http://sodipodi.sourceforge.net/DTD/sodipodi-0.dtd"
   xmlns:inkscape="http://www.inkscape.org/namespaces/inkscape"
   width="498.15625"
   height="341"
   id="svg2"
   version="1.1"
   inkscape:version="0.48.4 r9939"
   sodipodi:docname="Item_sem_imagem.svg">
  <defs
     id="defs4" />
  <sodipodi:namedview
     id="base"
     pagecolor="#ffffff"
     bordercolor="#666666"
     borderopacity="1.0"
     inkscape:pageopacity="0.0"
     inkscape:pageshadow="2"
     inkscape:zoom="0.7"
     inkscape:cx="205.28571"
     inkscape:cy="265.28067"
     inkscape:document-units="px"
     inkscape:current-layer="layer1"
     showgrid="false"
     fit-margin-top="0"
     fit-margin-left="0"
     fit-margin-right="0"
     fit-margin-bottom="0"
     inkscape:window-width="1280"
     inkscape:window-height="943"
     inkscape:window-x="-4"
     inkscape:window-y="-4"
     inkscape:window-maximized="1" />
  <metadata
     id="metadata7">
    <rdf:RDF>
      <cc:Work
         rdf:about="">
        <dc:format>image/svg+xml</dc:format>
        <dc:type
           rdf:resource="http://purl.org/dc/dcmitype/StillImage" />
        <dc:title></dc:title>
      </cc:Work>
    </rdf:RDF>
  </metadata>
  <g
     inkscape:label="Layer 1"
     inkscape:groupmode="layer"
     id="layer1"
     transform="translate(1,0.5)">
    <rect
       style="fill:#f2f2f2;fill-opacity:1;stroke:#000000;stroke-opacity:0"
       id="rect3089"
       width="497.14285"
       height="340"
       x="0"
       y="1.004464"
       transform="translate(-0.5,-1)" />
    <rect
       style="fill:none;stroke:#000000;stroke-opacity:0"
       id="rect2985"
       width="495.71429"
       height="495.71429"
       x="0"
       y="-0.49496078" />
    <text
       xml:space="preserve"
       style="font-size:56px;font-style:normal;font-variant:normal;font-weight:bold;font-stretch:normal;text-align:center;line-height:110.00000238%;letter-spacing:0px;word-spacing:0px;writing-mode:lr-tb;text-anchor:middle;fill:#999999;fill-opacity:1;stroke:none;font-family:Arial;-inkscape-font-specification:Arial Bold"
       x="253.06947"
       y="218.74542"
       id="text2987-1"
       sodipodi:linespacing="110%"><tspan
         sodipodi:role="line"
         id="tspan3062"
         x="253.06947"
         y="218.74542">SEM IMAGEM</tspan></text>
    <g
       style="font-size:72px;font-style:normal;font-variant:normal;font-weight:normal;font-stretch:normal;text-align:center;line-height:110.00000238%;letter-spacing:0px;word-spacing:0px;writing-mode:lr-tb;text-anchor:middle;fill:#808080;fill-opacity:1;stroke:none;font-family:FontAwesome;-inkscape-font-specification:FontAwesome"
       id="text3051"
       transform="translate(2.1414614,-14)">
      <path
         d="m 202.53348,159.93423 0,-67.172883 c 0,-1.611526 0.58292,-3.000244 1.74877,-4.166159 1.16583,-1.165759 2.55455,-1.748678 4.16615,-1.748757 l 83.01457,0 c 1.61151,7.9e-5 2.99166,0.582998 4.14045,1.748757 1.14859,1.165915 1.72294,2.554633 1.72303,4.166159 l 0,67.172883 c -9e-5,1.6116 -0.57444,3.00032 -1.72303,4.16616 -1.14879,1.16583 -2.52894,1.74875 -4.14045,1.74875 l -83.01457,0 c -1.6116,0 -3.00032,-0.58292 -4.16615,-1.74875 -1.16585,-1.16584 -1.74877,-2.55456 -1.74877,-4.16616 z m 7.92086,-2.00593 79.00271,0 0,-63.161025 -79.00271,0 z m 7.8694,-7.86941 0,-5.40058 14.24723,-18.51626 9.66961,8.02371 18.20765,-27.62009 21.08796,21.80804 0,21.70518 z m 0,-39.39849 c -2e-5,-2.26304 0.7715,-4.1661 2.31453,-5.70918 1.54301,-1.54296 3.44607,-2.31447 5.70919,-2.31453 2.1602,6e-5 4.01183,0.77157 5.55487,2.31453 1.54299,1.54308 2.3145,3.44614 2.31453,5.70918 -3e-5,2.16028 -0.77154,4.01191 -2.31453,5.55488 -1.54304,1.54307 -3.39467,2.31458 -5.55487,2.31453 -2.26312,5e-5 -4.16618,-0.77146 -5.70919,-2.31453 -1.54303,-1.54297 -2.31455,-3.3946 -2.31453,-5.55488 z"
         id="path3058"
         inkscape:connector-curvature="0"
         style="fill:#808080" />
    </g>
    <text
       xml:space="preserve"
       style="font-size:24px;font-style:normal;font-variant:normal;font-weight:bold;font-stretch:normal;text-align:center;line-height:110.00000238%;letter-spacing:0px;word-spacing:0px;writing-mode:lr-tb;text-anchor:middle;fill:#999999;fill-opacity:1;stroke:none;font-family:Arial;-inkscape-font-specification:Arial Bold"
       x="251.57338"
       y="258.88672"
       id="text2987-1-0"
       sodipodi:linespacing="110%"><tspan
         sodipodi:role="line"
         id="tspan3087"
         x="251.57338"
         y="258.88672">CLIQUE AQUI PARA ENVIAR</tspan></text>
  </g>
</svg>
